<svg xmlns="http://www.w3.org/2000/svg" width="30" height="30" fill="none"><path fill="#F50049" d="M24.15 30a1.1 1.1 0 0 1-.666-.229l-7.543-5.72-4.046 3.254c-.317.255-.726.32-1.095.172-.368-.147-.647-.488-.747-.91L8.022 17.96.763 14.857c-.457-.196-.76-.684-.763-1.231-.003-.547.294-1.04.748-1.243L28.348.105a1.086 1.086 0 0 1 .535-.103 1.13 1.13 0 0 1 .823.452 1.408 1.408 0 0 1 .29.989c-.004.05-.01.1-.02.15l-4.659 27.328c-.075.439-.342.806-.711.978a1.08 1.08 0 0 1-.455.101Zm-7.547-8.655 6.72 5.095 3.624-21.264-13.092 14.085 2.717 2.06.031.024Zm-5.593-1.133.9 3.81 1.938-1.559-2.538-1.925c-.118-.089-.22-.2-.3-.326Zm-6.555-6.62 4.984 2.13c.357.153.627.489.724.902l.632 2.678c.03-.31.154-.6.358-.819l12.475-13.42-19.173 8.529Z"/></svg>