<svg xmlns="http://www.w3.org/2000/svg" width="37" height="22" fill="none"><path fill="#F50049" stroke="#F50049" stroke-miterlimit="10" d="M34.443 16.352c-.759-.891-1.62-1.695-2.454-2.465-.294-.275-.595-.55-.889-.83-.39-.376-.58-.644-.601-.838-.02-.194.116-.482.424-.904.465-.636.957-1.273 1.435-1.889.424-.55.861-1.112 1.285-1.681l.096-.127c.82-1.112 1.668-2.264 2.119-3.664.13-.402.267-.998-.062-1.52-.328-.523-.93-.677-1.353-.75a3.617 3.617 0 0 0-.588-.041l-5.318-.007c-.923-.013-1.558.416-1.907 1.273-.28.683-.608 1.48-.984 2.23-.732 1.454-1.655 3.128-2.994 4.521l-.062.06c-.089.094-.24.255-.314.289-.144-.087-.315-.603-.308-.871v-.02l-.007-6.022c0-.033 0-.06-.006-.093-.117-.858-.35-1.722-1.737-1.99C20.17 1.007 20.13 1 20.082 1h-5.53c-1.04 0-1.593.469-2.03.971-.13.148-.465.543-.294 1.018.177.483.697.583.868.616.601.114.916.45 1.011 1.086.192 1.239.212 2.565.075 4.172-.04.429-.109.757-.232 1.032a.839.839 0 0 1-.082.147.696.696 0 0 1-.15-.08c-.424-.281-.745-.724-1.053-1.152-1.23-1.708-2.27-3.59-3.172-5.76-.369-.891-1.066-1.387-1.961-1.4a144.391 144.391 0 0 0-4.82 0c-.724.013-1.23.234-1.51.663-.28.428-.267.978.027 1.627 2.133 4.649 4.067 8.024 6.275 10.958 1.559 2.063 3.124 3.497 4.929 4.515 1.9 1.065 4.04 1.587 6.52 1.587.281 0 .568-.007.862-.02 1.531-.067 2.153-.663 2.221-2.13.041-.77.124-1.4.431-1.942.082-.155.185-.255.26-.275.082-.02.226.027.383.127.287.188.54.436.745.657.205.22.417.455.622.676.43.476.882.965 1.353 1.433 1.06 1.059 2.29 1.548 3.644 1.447h4.914a1.64 1.64 0 0 0 1.333-.837c.342-.596.335-1.353-.013-2.016-.363-.677-.841-1.273-1.265-1.768Zm.068 3.134c-.068.114-.15.14-.191.14h-4.922c-.957.081-1.77-.254-2.563-1.037a50.14 50.14 0 0 1-1.306-1.387 29.134 29.134 0 0 0-.635-.69c-.267-.28-.595-.61-1.019-.877-.629-.402-1.155-.389-1.483-.308-.321.08-.786.308-1.142.938-.457.817-.56 1.7-.601 2.538-.02.51-.11.643-.15.677-.048.046-.212.12-.745.147-2.584.12-4.751-.335-6.624-1.386-1.634-.918-3.062-2.231-4.498-4.14C6.486 11.254 4.6 7.952 2.508 3.398c-.076-.168-.103-.268-.103-.322.055-.02.157-.04.342-.04 1.517-.027 3.083-.027 4.77 0 .233.007.493.074.691.55.944 2.27 2.03 4.24 3.322 6.034.342.476.773 1.065 1.402 1.487.574.389 1.045.369 1.333.288.293-.08.697-.315.97-.944.178-.409.28-.864.335-1.447.15-1.721.123-3.148-.082-4.494-.143-.965-.656-1.661-1.456-2.016.144-.074.3-.1.527-.1h5.461c.308.066.37.147.39.173.088.114.136.389.17.603l.007 5.968c-.013.57.274 1.842 1.238 2.19.006 0 .013.007.027.007.882.281 1.463-.328 1.77-.657l.055-.06c1.47-1.527 2.46-3.315 3.233-4.856.404-.797.745-1.62 1.032-2.33.144-.356.274-.416.588-.41h.014l5.325.007c.123 0 .253 0 .355.02.253.04.356.094.39.114.007.04 0 .154-.075.389-.39 1.192-1.135 2.204-1.921 3.275l-.096.127c-.41.556-.847 1.119-1.264 1.662a71.814 71.814 0 0 0-1.456 1.922c-1.012 1.386-.923 2.304.341 3.51.301.288.602.569.903.844.84.777 1.633 1.513 2.337 2.344.37.435.793.964 1.094 1.54.157.295.116.57.034.71Z"/></svg>