<svg xmlns="http://www.w3.org/2000/svg" width="197" height="29" fill="none"><path fill="#C00" d="M1.5 21.43c-.6 0-.8.296-.8.79v.79c0 .395-.1.494-.5.494-.1 0-.2 0-.2-.1v-1.283c0-.099.3-.494.8-1.284v-.099c.2-.395.7-1.086 1.5-2.073.9-1.087 1.5-1.58 1.8-1.58.8 0 1.7.296 2.8.79 1.1.69 1.8.987 2 .987.2 0 .3-.099.4-.395.157-.804.476-1.569.94-2.248A6.106 6.106 0 0 1 12 14.517c.5-.099.8-.296.8-.494 0-.296-.4-.592-1.3-.889-.8-.296-1.4-.493-1.7-.493-.4 0-1.1.493-1.9 1.382-.9.988-1.5 1.383-1.8 1.383-.3 0-.7-.198-1.2-.692-2.4-1.975-3.6-3.95-3.6-6.122 0-.988.9-2.37 2.6-4.05.3-.197.8-.79 1.5-1.48.2-.198.6-.494 1.1-.89.2-.098.3-.197.5-.493C7.6.988 8.3.494 9 0h.2c.2 0 .4.099.7.198.4.197.6.395.6.395 2.1.79 3.6 1.283 4.6 1.283.7 0 1.1-.098 1.3-.296.1-.099.1-.494.1-1.185 0-.099.1-.099.2-.099.3 0 .4.297.4.89 0 .79-.4 1.875-1 3.16-.1.197-.3.394-.5.69-.6 1.087-1 1.58-1.2 1.58h-2c-.3-.098-.8-.197-1.5-.197h-.4c-.2.296-.5.691-.9 1.284-.4.395-.7.691-1.2.889-.1.098-.6.197-1.4.493l-.1.1c0 .295.3.79 1 1.283.6.494 1.2.889 1.6.988.3 0 .9-.396 1.8-1.284.6-.593 1.1-1.185 1.7-1.778h.2c.3 0 1 .296 2 .79 1 .494 1.6.889 1.6 1.185.9.889 1.6 1.778 2 2.864.3.79.6 1.975.8 3.456v1.68c0 .197-.1.296-.2.493-.3.198-.8.494-1.4.988-.3.296-.9.691-1.6 1.185-.9.592-2.1 1.777-3.7 3.456-.4.395-.9.593-1.4.593-.8 0-1.7-.198-2.7-.593-.8-.395-1.7-.79-2.5-1.185-1.1-.494-2.2-.889-3-1.185-.8-.494-1.3-.691-1.6-.691Zm10.4 3.16h.3l.2-.296c-.3-.198-.7-.395-1.2-.494-.8-.198-1.2-.296-1.3-.296 0 0-.8-.395-2.3-1.087-.9-.296-1.9-.79-3.2-1.382 0 0-.5-.198-1.4-.395-.2-.099-.5-.099-.8-.198-.3 0-.5.099-.5.395l2.4.889c.9.395 2.4.988 4.3 1.778.4.197 1.1.395 2 .79.4.197.9.296 1.5.296ZM1.7 8.888c0 .691.1 1.284.4 1.777.3.692.8 1.58 1.7 2.47.9 1.086 1.7 1.678 2.3 1.678.2 0 .2-.099.2-.296-2-1.58-3.3-3.16-3.8-4.642-.1-.296-.2-.592-.3-.987-.2-.494-.3-.79-.3-.79-.1 0-.2.296-.2.79Zm.1-1.086c0 .098 0 .098 0 0Zm.4 12.048c.3.197 1.1.493 2.6.888.3.198.7.396 1.3.692 1.1.494 2.2.889 3.2 1.382 1.5.593 2.6.89 3.2.89.4 0 .6-.1.6-.396 0-.296-.8-.494-2.3-.79-.7-.099-2.1-.691-4-1.679-1.8-.889-3.1-1.284-4-1.284-.4-.098-.6 0-.6.297Zm4.7-5.827c.3 0 .4-.099.4-.395-.1-.197-.6-.691-1.7-1.382a5.333 5.333 0 0 1-1.8-2.568c-.4-.988-.8-1.975-1-3.061-.2 0-.2.098-.2.197v1.679c0 .494.1.987.4 1.481.4.691 1 1.482 1.6 2.272l1.1 1.086c.5.395.9.691 1.2.691Zm-.3-5.431c.4 0 1-.395 1.8-1.087.9-.69 1.3-1.185 1.3-1.58-.8-.296-1.5-.79-2.2-1.284-.4-.296-.9-.69-1.5-1.185h-.1c-.2 0-.4.198-.6.593-.2.395-.2.592-.2.79 0 .494.1 1.185.5 2.074.3 1.086.6 1.679 1 1.679Zm4.7-2.765c1 .098 2 .197 2.9.197.4-.197.6-.395.6-.494l-.1-.098c-1.7 0-2.8-.1-3.4-.297-.3-.099-.7-.296-1.3-.494-.3-.197-.7-.395-1.2-.592-.3-.296-.6-.494-1-.79-.5-.395-.8-.593-.9-.593-.3 0-.4.1-.4.395.7.79 1.6 1.383 2.8 1.877.3.296.6.395 1.1.592.4.099.7.198.9.297ZM7.4 2.173c0 .197.3.493 1 .987.5.296.9.593 1.3.79.3.099.8.296 1.5.494.6.296 1.5.494 2.8.494.5 0 .8 0 .9-.099.3-.099.5-.296.5-.691 0 0-.2-.1-.7-.1-1.1 0-2.1-.098-3.1-.394-1-.296-1.9-.79-2.9-1.481-.4-.297-.8-.395-1-.395-.2 0-.3.098-.3.395ZM9.8 18.96c0 .296.1.395.4.494 2.2.889 3.9 1.382 4.9 1.382.2-.197.3-.691.3-1.382 0-.89-.1-1.778-.4-2.667-.3-1.086-.8-1.777-1.4-2.271h-.2c-.5 0-1.2.593-2.1 1.777-.8 1.087-1.3 1.877-1.5 2.667Zm5.8-1.679c0 .296 0 .79.1 1.383.1.592.1.987.1 1.284 0 .197 0 .296.1.394l.2-.395c.1-.493.1-.987.1-1.58 0-1.48-.6-2.962-1.7-4.345-1.2-1.58-2.5-2.271-4-2.271-.4 0-.6.099-.6.197 0 .1.4.297 1.3.593s1.5.592 1.7.79c.3.296.7.691 1.2 1.284.2.197.4.592.7 1.185.3.592.5.987.5 1.185.3.099.3.197.3.296Zm1.3.494c0 .987.1 1.58.3 1.777.3-.197.4-.493.4-1.185 0-2.765-.9-4.937-2.8-6.419-1-.889-2-1.284-2.8-1.284-.4 0-.6.1-.6.396.1.098.7.395 1.8.888.9.395 1.4.79 1.4.988l.8.79c.1.099.4.592.7 1.284.3.691.5 1.185.6 1.382 0 .395 0 .79.2 1.383Z"/><path fill="#303030" d="M22.4 19.158v-3.555c0-1.481-.1-2.37-.2-2.765-.1-.099-.2-.197-.5-.395-.3-.099-.4-.296-.4-.592.1-.1.6-.593 1.5-1.58.9-.89 1.4-1.383 1.5-1.383.4 0 .9.197 1.5.691.7.395 1.1.79 1.2 1.185.2.494.3.988.3 1.482 0 .098 0 .197.2.197.7-.395 1.9-1.481 3.7-3.456.1-.1.3-.198.5-.198.8 0 1.7.494 2.6 1.383.5.493.9 1.185 1 2.074h.1c.1 0 .4-.297.9-.89.5-.592.8-.888.9-.888.1-.197.6-.691 1.6-1.58h.1c.4 0 1.2.592 2.2 1.876.9 1.185 1.5 1.975 1.7 2.568.5 1.284.8 2.37.8 3.16 0 1.185-.4 2.173-1.1 2.963-.5.494-1.6 1.481-3.4 2.962-1.9 1.58-2.9 2.37-3.1 2.37h-.9c-.2-.098-.6-.296-1.2-.395-.6-.098-1-.296-1.1-.493-.7-.297-1.2-.593-1.5-1.087-.3-.395-.5-.889-.7-1.678h-.2l-1.6 2.073c-.8 1.087-1.3 1.68-1.6 1.68-.6 0-1.3-.198-2.2-.593-1-.395-1.6-.79-1.9-1.185-.4-.593-.6-.988-.6-1.284 0-.296 0-.691-.1-1.284.1-.395 0-.79 0-1.383Zm4.9-.79c0 .89.1 1.482.4 1.778.3.296.9.592 1.7.691.6 0 1-.889 1.1-2.567v-2.963c0-.79-.1-1.383-.4-1.876-.4-.692-.9-.988-1.6-.988-.6 0-1 .395-1.1 1.185v4.74h-.1Zm7.9-.592c0 1.284.3 2.271 1 2.864.1 0 .3.098.8.296.6.296 1.4.395 2.4.395.2-.099.2-.197.2-.395 0-2.864-.8-5.333-2.5-7.308-.6-.691-1-.987-1.4-.987-.2 0-.4.197-.4.69v.988l-.1 1.877v1.58ZM45 11.85l.1-.1c1.5 0 3.5-.493 6-1.58.1 0 .5-.296 1.3-.69.6-.297 1-.494 1.2-.494.3 0 .8.493 1.4 1.481.6.889.9 1.481 1.1 1.975.2.593.3 1.185.3 1.778v.987c-.4.691-1.9 1.58-4.2 2.765-.4.198-1 .494-1.8.988-.1.099-.2.197-.2.395 0 .592.5 1.086 1.6 1.382.8.297 1.6.396 2.3.396h.6c.2-.1.4-.494.7-.988.3-.593.5-.988.6-1.086.2 0 .3.098.3.296 0 .296-.5 1.284-1.6 2.765s-1.8 2.469-2.2 2.765h-.4c-1.1 0-2.3-.296-3.7-.987-1.1-.593-1.8-1.087-2.1-1.58-.5-.79-.8-1.877-.9-3.457v-3.654c0-.987-.1-1.975-.2-3.061v-.296H45Zm5.2 6.517c.4.1.8-.098 1.3-.493s.7-.79.7-1.087c0-.592-.1-1.185-.3-1.777-.2-.593-.4-1.185-.8-1.778-.5-.889-.8-1.382-1.1-1.382 0 .197-.1.395-.1.493v.79c0-.098 0 0 .1.395v1.185c0 1.58.1 2.766.2 3.654Zm7.6-5.629c0-.197.4-.395 1.3-.592.5-.099 1.1-.296 1.6-.395.3-.099.7-.296 1.2-.593.6-.395 1-.592 1-.79 0-.197-.1-.395-.2-.592-.6-.79-1.2-2.074-1.6-3.95.1-.395.5-.692 1.1-.988.4-.099 1.1-.395 2.2-.79s1.8-.494 2-.494c.2 0 .3.099.3.198 0 .098-.2.197-.5.395-.3.098-.5.296-.5.493 0 .494 1 2.37 3 5.53s3 5.235 3 6.321c0 .79-.3 1.481-.8 2.173-.8.888-2 2.172-3.7 3.654-2 1.876-3.4 2.765-4 2.765-.4 0-1.2-.297-2.3-.89-1.7-.987-2.6-1.974-2.7-2.863l-.3-7.505c0-.1 0-.297-.1-.494v-.593Zm5.2 4.642c0 2.567 1.3 3.851 4 3.851.4 0 .7-.098.8-.296.1-.099.1-.395.1-.889 0-.395-.1-.987-.4-1.679-.3-.69-.9-2.073-2-4.049-1.2-2.27-2-3.357-2.3-3.357-.2 0-.3.494-.3 1.58v.987c0 .395 0 .89.1 1.58v2.272Zm10.7-4.444c-.4.197-.6.395-.8.395 0-.395.2-.79.5-1.086l.9-.89c.2-.197.8-.888 1.7-2.172.1-.197.3-.296.5-.296.3 0 .6.099 1 .296.4.296.9.691 1.2 1.284.4.592.6 1.086.6 1.58v6.715c0 1.58.5 2.37 1.4 2.37.2 0 .3-.197.5-.493.2-.297.3-.494.4-.593l.1.099v.296c0 .395-.4 1.284-1.2 2.37a8.512 8.512 0 0 1-1.7 2.074h-.4c-.4 0-.7-.099-1-.197-2.1-.988-3.1-2.074-3.1-3.457V14.32c0-.79-.2-1.185-.6-1.382Zm1.7-5.53c.7-1.68 1.4-2.766 2.3-3.358.3-.198.8-.296 1.4-.296.2 0 .3.098.3.395 0 .296-.5.987-1.6 2.074-1.1 1.086-1.8 1.58-2.1 1.58-.2-.1-.3-.198-.3-.395Zm8.8 16.097c-.5 0-.8.098-.8.493 0 .198.2.297.5.395.3.1.5.198.5.297 0 .395-.2.494-.6.494-.6 0-.9-.297-.9-.89 0-.592.6-1.58 1.8-3.16.2-.197.6-.493 1-.888v-.099c0-.099-.2-.296-.7-.593a4.455 4.455 0 0 1-1.7-2.468c-.2-.692-.3-1.68-.3-2.963 0-.395.1-.691.4-.988.2-.197.5-.395.9-.493 1.6-.692 3.1-1.58 4.5-2.667.7-.494 1.1-.79 1.3-.79.2 0 .5.198 1.1.593.6.395 1 .592 1.1.691.8.197 1.5.296 2.1.296.8 0 1.2-.098 1.2-.493 0-.297-.1-.494-.5-.494h-.9c0-.099-.1-.198-.1-.297 0-.493.3-.69.8-.69.3 0 .5.098.8.197.2.098.4.296.4.592 0 .198 0 .395-.1.691 0 .297-.1.593-.1.692 0 .098-.3.592-1 1.481-.7.889-1 1.284-1 1.383 0 .197.1.296.5.493.6.297 1 .79 1.4 1.383.7 1.284 1 2.666 1 4.148v.79c0 .691-1.2 1.58-3.5 2.864-2.2 1.185-3.7 1.876-4.5 1.876-.1 0-.6-.296-1.6-.988-1.1-.592-2-.888-3-.888Zm2.7-10.468c0 1.086.6 2.271 2 3.456.3.296.5.395.7.395.3-.099.7-.494 1.4-1.086l1.2-1.185-.1-.1c-1.2-.197-2.2-.493-3-.888-.1 0-.5-.296-1-.691-.4-.296-.7-.494-1-.494l-.1.099v.494h-.1Zm.4 6.517c.2.198.7.494 1.6.79.9.297 1.5.593 1.7.79.4.297.8.593 1.1.89.4.394.7.592 1 .592 0-2.271-.7-3.95-2-5.135-.1-.1-.3-.198-.4-.297-.3 0-.8.297-1.5.988-.6.494-1 .889-1.5 1.382Zm17 9.382c.1-.099.4-.197 1-.296.7-.099 1.2-.198 1.6-.296.6-.198 1-.593 1.3-1.186.3-.592.4-1.58.4-3.16 0-.493 0-1.185-.1-2.172 0-.988-.1-1.679-.1-2.173l-.1-.099c-.2-2.765-.3-4.641-.2-5.431-1.9-.593-3-.889-3.3-.889-.7 0-1.1.691-1.1 1.975v3.16c.1.692.3 1.284.7 1.778.4.494.8.691 1.2.691.1 0 .3-.197.4-.592.2-.395.3-.593.4-.593.1 0 .2.099.2.198 0 .098-.3.888-.9 2.172-.6 1.284-1 2.074-1.1 2.272-.2.296-.4.592-.6.79h-.2c-.6 0-1.2-.1-2-.494-1.7-.691-2.7-1.778-2.8-3.358-.1-.395-.2-1.086-.2-1.876V8.986l.1-.098c-.2-.494-.2-1.58-.2-3.061 0-.1-.1-.297-.3-.593-.2-.296-.3-.494-.3-.593 0-.197.1-.197.3-.197h2.3c.5 0 1.2-.099 2.1-.395.8-.296 1.4-.395 1.6-.395.2 0 .3.099.3.197 0 .1-.1.297-.3.395-.2.1-.4.198-.5.297-.2.197-.3.592-.3 1.382l.1 7.012h.1l1.1-1.086c.6-.593 1.4-1.58 2.5-3.062.1-.099.1-.099.3-.099.2 0 .5.1.8.198.2.099.6.197 1.3.395.7.197 1.1.296 1.3.296.3 0 .8 0 1.5.099.4.099.6.395.6.79v3.753c0 1.876.1 3.357.3 4.345v5.036c0 .89-1.2 2.074-3.6 3.358-2.2 1.185-4 1.876-5.1 1.876-.4.198-.5.198-.5.1Zm24.1-23.01c0-.296-.1-.592-.3-.987-.2-.395-.3-.593-.3-.692 0-.098 0-.098.1-.197h1.2c2.9 0 4.5-.198 5-.494h.3c.1 0 .2.099.2.198 0 .197-.1.197-.2.197-.4.198-.7.395-.9.691-.2.297-.1.593-.1 1.087v6.221l.2.1c.4-.396 1-.89 1.9-1.581.9-.691 1.5-1.185 1.9-1.58h.1c.6 0 1.4.79 2.4 2.271.9 1.284 1.5 2.272 1.8 3.062.3.79.4 1.284.4 1.777 0 .099 0 .198-.1.395-.1.198-.1.296-.1.395 0 .1 0 .198.1.297 0 .098.1.296.1.296 0 .691-1.5 2.469-4.6 5.333-.8.592-1.7 1.382-2.6 2.073h-.5c-.7 0-1.4-.197-2.3-.493-.9-.297-1.5-.692-2-1.185l-1-.988c-.5-.494-.7-2.568-.7-6.123V5.925Zm9.5 15.209.1-.1v-.69c0-.89-.2-1.976-.5-3.062-.4-1.185-.9-2.074-1.5-2.666l-.9-.89c-.7-.69-1.2-1.085-1.4-1.085-.3 0-.4.296-.4.888v2.272c0 .493.1.888.1.987v1.185c.1 1.284.9 2.173 2.5 2.667 1 .296 1.7.494 2 .494Zm6-8.197c-.4.197-.6.395-.8.395 0-.395.2-.79.5-1.086l.9-.89c.2-.197.8-.888 1.7-2.172.1-.197.3-.296.5-.296.3 0 .6.099 1 .296.4.296.9.691 1.2 1.284.4.592.6 1.086.6 1.58v6.715c0 1.58.5 2.37 1.4 2.37.2 0 .3-.197.5-.493.2-.297.3-.494.4-.593l.1.099v.296c0 .395-.4 1.284-1.2 2.37a8.496 8.496 0 0 1-1.7 2.074h-.3c-.4 0-.7-.099-1-.197-2.1-.988-3.1-2.074-3.1-3.457V14.32c-.1-.79-.3-1.185-.7-1.382Zm1.7-5.53c.7-1.68 1.4-2.766 2.3-3.358.3-.198.8-.296 1.4-.296.2 0 .3.098.3.395 0 .296-.5.987-1.6 2.074-1.1 1.086-1.8 1.58-2.1 1.58-.2-.1-.3-.198-.3-.395Zm8.2 13.035c0-.494 0-1.284.1-2.37 0-1.086.1-1.777.1-2.37 0-1.086-.1-1.679-.2-1.778-.1-.098-.2-.098-.5-.197s-.4-.198-.4-.296c0-.395.8-1.383 2.4-3.062 1.8-1.876 2.8-2.864 2.9-3.061.2-.296.3-.494.5-.494s.3.296.3.889c0 .296 0 .691-.1 1.382 0 .692-.1 1.185-.1 1.482 0 .889.1 1.382.4 1.382h1.2c.1 0 .3-.098.4-.197.1-.099.3-.198.4-.198.1 0 .2.198.2.593 0 .197 0 .494-.1.889s-.1.69-.1.888c0 .692-.1 1.087-.3 1.087-.2 0-.3-.198-.3-.692-.1-.395-.2-.69-.3-.69h-1.1c-.2 0-.3.592-.3 1.678 0 1.876 0 2.963.1 3.358.2 1.58.8 2.271 1.8 2.271.1 0 .3-.099.4-.296.1-.198.3-.297.4-.297.1 0 .2.1.2.198 0 .395-.3.988-.9 1.58-.1.198-.4.593-.7.988-.3.296-.7.79-1.2 1.48-.2.198-.4.297-.7.297-.3 0-.7-.197-1.2-.494-1-.592-1.5-.987-1.7-1.185-.6-.493-1-1.086-1.1-1.678v-.198c-.3.296-.4-.197-.5-.889Zm9.9 0c0-.494 0-1.284.1-2.37 0-1.086.1-1.777.1-2.37 0-1.086-.1-1.679-.2-1.778-.1-.098-.2-.098-.5-.197s-.4-.198-.4-.296c0-.395.8-1.383 2.4-3.062 1.8-1.876 2.8-2.864 2.9-3.061.2-.296.3-.494.5-.494s.3.296.3.889c0 .296 0 .691-.1 1.382 0 .692-.1 1.185-.1 1.482 0 .889.1 1.382.4 1.382h1.2c.1 0 .3-.098.4-.197.1-.099.3-.198.4-.198.1 0 .2.198.2.593 0 .197 0 .494-.1.889s-.1.69-.1.888c0 .692-.1 1.087-.3 1.087-.2 0-.3-.198-.3-.692-.1-.395-.2-.69-.3-.69h-1.1c-.2 0-.3.592-.3 1.678 0 1.876 0 2.963.1 3.358.2 1.58.8 2.271 1.8 2.271.1 0 .3-.099.4-.296.1-.198.3-.297.4-.297.1 0 .2.1.2.198 0 .395-.3.988-.9 1.58-.1.198-.4.593-.7.988-.3.296-.7.79-1.2 1.48-.2.198-.4.297-.7.297-.3 0-.7-.197-1.2-.494-1-.592-1.5-.987-1.7-1.185-.6-.493-1-1.086-1.1-1.678v-.198c-.4.296-.4-.197-.5-.889Zm9-8.591.1-.1c1.5 0 3.5-.493 6-1.58.1 0 .5-.296 1.3-.69.6-.297 1-.494 1.2-.494.3 0 .8.493 1.4 1.481.6.889.9 1.481 1.1 1.975.2.593.3 1.185.3 1.778v.987c-.4.691-1.9 1.58-4.2 2.765-.4.198-1 .494-1.8.988-.1.099-.2.197-.2.395 0 .592.5 1.086 1.6 1.382.8.297 1.6.396 2.3.396h.6c.2-.1.4-.494.7-.988.3-.593.5-.988.6-1.086.2 0 .3.098.3.296 0 .296-.5 1.284-1.6 2.765s-1.8 2.469-2.2 2.765h-.4c-1.1 0-2.3-.296-3.7-.987-1.1-.593-1.8-1.087-2.1-1.58-.5-.79-.8-1.877-.9-3.457v-3.654c0-.987-.1-1.975-.2-3.061v-.296h-.2Zm5.2 6.517c.4.1.8-.098 1.3-.493s.7-.79.7-1.087c0-.592-.1-1.185-.3-1.777-.2-.593-.4-1.185-.8-1.778-.5-.889-.8-1.382-1.1-1.382 0 .197-.1.395-.1.493v.79c0-.098 0 0 .1.395v1.185c.1 1.58.1 2.766.2 3.654Zm9.2-2.172c0-1.778-.3-2.765-1-2.765-.1 0-.1 0-.3.098-.2.1-.2.1-.3.1-.1 0-.1-.1-.1-.198 0-.1 0-.198.1-.297.9-.79 1.8-1.876 2.9-3.259.2-.296.4-.395.6-.395.5 0 1.1.297 1.7.89.6.592 1 1.086 1.1 1.58 0 .296.1.79.2 1.48.3-.098.6-.888 1.1-2.073.4-1.185.8-1.778 1-1.778.2 0 .7.099 1.4.395.7.296 1.2.494 1.4.494.1 0 .1.197.1.494 0 .098-.3.79-.9 2.172-.7 1.482-1 2.37-1.1 2.568-.1.395-.2.889-.2 1.481 0 .198-.1.297-.3.297-.2 0-.4-.1-.4-.198v-.395c0-.198.1-.494.3-.889.2-.395.3-.592.3-.79 0-.296-.3-.592-.9-.79-.5-.197-.9-.296-1.3-.296-.3 0-.5.79-.5 2.37v3.358c0 .493.3.888.8 1.086.4.198.9.395 1.4.395 0 0 .1-.296.3-.79.1-.395.3-.593.4-.593.2 0 .3.1.3.395-.2.297-.4.692-.5.988-.1.296-.5.988-1.2 1.975-.7 1.086-1.2 1.679-1.3 1.778-.2.099-.4.197-.6.197-.5 0-1.3-.395-2.4-1.086-1.1-.691-1.7-1.284-1.8-1.778-.1-.395-.2-.889-.2-1.58v-2.37c-.1-1.185-.1-1.975-.1-2.271Z"/></svg>